<svg viewBox="0 0 24 24" fill="none" xmlns="http://www.w3.org/2000/svg">
  <path fill-rule="evenodd" clip-rule="evenodd" d="M21.2829 17.5574C22.6953 14.8967 22.5694 11.6669 20.9169 9.17228C19.2644 6.67765 16.2952 5.25008 13.0654 5.25008C7.54581 5.25008 3.07842 9.71747 3.07842 15.2371C3.07842 16.9946 3.53509 18.6508 4.35246 20.0768L3.02344 24L7.13289 22.9234C8.48795 23.6601 10.0359 24.0621 11.6441 24.0621L11.6493 24.0621C16.5866 24.0621 20.7381 20.4891 21.2829 17.5574ZM11.6493 22.4277H11.6457C10.2119 22.4277 8.82967 22.043 7.62539 21.3289L7.33965 21.1593L4.90795 21.7963L5.55735 19.4253L5.3713 19.1294C4.58883 17.8839 4.17551 16.4475 4.17551 14.9701C4.17551 10.8407 7.53513 7.48108 11.6644 7.48108C13.6649 7.48108 15.5454 8.2604 16.9599 9.67487C18.3744 11.0893 19.1524 12.9698 19.1524 14.9701C19.1524 19.0995 15.7927 22.4277 11.6493 22.4277Z" fill="white"/>
  <path fill-rule="evenodd" clip-rule="evenodd" d="M15.7554 13.8837C15.5303 13.7712 14.4258 13.2272 14.2201 13.153C14.0143 13.0787 13.8643 13.0416 13.7142 13.2667C13.5641 13.4918 13.1364 14.0049 13.0044 14.1539C12.8724 14.3028 12.7423 14.3228 12.5173 14.2104C12.2922 14.0978 11.5671 13.8606 10.7075 13.0941C10.0263 12.4866 9.5666 11.7366 9.43454 11.5115C9.30252 11.2864 9.42065 11.1641 9.53322 11.0521C9.63412 10.9517 9.75734 10.7915 9.86989 10.6606C9.98246 10.5298 10.0199 10.4361 10.0949 10.286C10.1699 10.136 10.1324 10.0049 10.0762 9.89234C10.0199 9.77983 9.57005 8.67325 9.3825 8.22306C9.19491 7.77292 9.00632 7.83416 8.86801 7.83416C8.74104 7.83416 8.59101 7.83416 8.441 7.83416C8.291 7.83416 8.04716 7.89043 7.84084 8.11554C7.63456 8.34062 7.0531 8.88457 7.0531 9.9908C7.0531 11.097 7.8596 12.166 7.97214 12.316C8.08472 12.4661 10.0385 15.4741 13.0312 16.7663C15.0863 17.6534 15.4851 17.478 15.9352 17.4357C16.3853 17.3934 17.3941 16.8553 17.6004 16.2738C17.8068 15.6923 17.8068 15.1921 17.7505 15.0935C17.6942 14.9949 17.5442 14.9387 17.3191 14.8261L15.7554 13.8837Z" fill="white"/>
</svg>
